<svg width="66" height="25" viewBox="0 0 66 25" fill="none" xmlns="http://www.w3.org/2000/svg">
<path d="M1.012 16.888C1.08533 15.9053 1.15133 14.9887 1.21 14.138C1.26867 13.2727 1.32733 12.4073 1.386 11.542C1.45933 10.6767 1.54733 9.782 1.65 8.858C1.75267 7.91933 1.88467 6.89267 2.046 5.778C2.14867 5.49933 2.31 5.27933 2.53 5.118C2.75 4.942 2.992 4.832 3.256 4.788C3.52 4.72933 3.79133 4.73667 4.07 4.81C4.34867 4.88333 4.598 5.02267 4.818 5.228C4.95 5.36 5.038 5.558 5.082 5.822C5.126 6.086 5.14067 6.29867 5.126 6.46C5.02333 7.296 4.93533 8.088 4.862 8.836C4.80333 9.56933 4.74467 10.3247 4.686 11.102C4.642 11.8647 4.59067 12.6713 4.532 13.522C4.47333 14.3727 4.4 15.326 4.312 16.382C4.28267 16.8073 4.32667 17.0567 4.444 17.13C4.576 17.1887 4.80333 17.2107 5.126 17.196C5.46333 17.1813 5.72733 17.174 5.918 17.174C6.12333 17.1593 6.292 17.152 6.424 17.152C6.556 17.1373 6.666 17.13 6.754 17.13C6.842 17.1153 6.952 17.1007 7.084 17.086C7.216 17.0713 7.37733 17.0567 7.568 17.042C7.75867 17.0273 8.02267 17.0053 8.36 16.976C8.94667 16.932 9.416 17.0273 9.768 17.262C10.1347 17.482 10.3547 17.746 10.428 18.054C10.5013 18.362 10.4207 18.67 10.186 18.978C9.95133 19.286 9.54067 19.4987 8.954 19.616C8.58733 19.7187 8.05933 19.8067 7.37 19.88C6.68067 19.968 5.962 20.0267 5.214 20.056C4.48067 20.0853 3.79867 20.0707 3.168 20.012C2.53733 19.968 2.09 19.8653 1.826 19.704C1.59133 19.5133 1.41533 19.308 1.298 19.088C1.18067 18.868 1.09267 18.6407 1.034 18.406C0.99 18.1567 0.968 17.9073 0.968 17.658C0.982667 17.4087 0.997333 17.152 1.012 16.888ZM14.8572 15.898C14.6666 15.8687 14.5566 15.8613 14.5272 15.876C14.5126 15.876 14.4979 15.942 14.4832 16.074C14.4099 16.6607 14.4612 17.13 14.6372 17.482C14.8132 17.8193 15.0699 18.0467 15.4072 18.164C15.7592 18.2667 16.1626 18.2593 16.6172 18.142C17.0719 18.0247 17.5486 17.79 18.0472 17.438C18.2819 17.2767 18.5459 17.196 18.8392 17.196C19.1326 17.1813 19.3819 17.2327 19.5872 17.35C19.8072 17.4527 19.9539 17.614 20.0272 17.834C20.1006 18.054 20.0419 18.3107 19.8512 18.604C19.4259 19.22 18.9346 19.6453 18.3772 19.88C17.8199 20.1293 17.1672 20.2613 16.4192 20.276C15.6712 20.2907 14.9819 20.2027 14.3512 20.012C13.7206 19.836 13.1706 19.5573 12.7012 19.176C12.2466 18.8093 11.8872 18.3547 11.6232 17.812C11.3739 17.2693 11.2492 16.6533 11.2492 15.964C11.2639 15.304 11.3152 14.6953 11.4032 14.138C11.5059 13.5807 11.6672 13.0673 11.8872 12.598C12.1072 12.114 12.3932 11.6667 12.7452 11.256C13.1119 10.8453 13.5592 10.4493 14.0872 10.068C14.7032 9.64267 15.3999 9.40067 16.1772 9.342C16.9692 9.28333 17.7026 9.386 18.3772 9.65C19.0666 9.914 19.6166 10.3393 20.0272 10.926C20.4379 11.498 20.5772 12.2093 20.4452 13.06C20.3426 13.6613 20.1079 14.1673 19.7412 14.578C19.3746 14.9887 18.9346 15.3113 18.4212 15.546C17.9079 15.7807 17.3359 15.9273 16.7052 15.986C16.0892 16.0447 15.4732 16.0153 14.8572 15.898ZM16.6392 11.652C16.1699 11.9893 15.8179 12.378 15.5832 12.818C15.3632 13.2433 15.1359 13.7493 14.9012 14.336C15.3119 14.336 15.6932 14.3067 16.0452 14.248C16.3972 14.1893 16.7126 14.0867 16.9912 13.94C17.2699 13.7787 17.4972 13.566 17.6732 13.302C17.8639 13.0233 17.9886 12.6713 18.0472 12.246C18.0619 12.0407 18.0252 11.872 17.9372 11.74C17.8492 11.608 17.7319 11.52 17.5852 11.476C17.4386 11.4173 17.2772 11.41 17.1012 11.454C16.9399 11.4833 16.7859 11.5493 16.6392 11.652ZM27.9223 9.65C28.5236 9.738 29.059 10.024 29.5283 10.508C30.0123 10.992 30.335 11.5567 30.4963 12.202C30.599 12.6127 30.643 13.148 30.6283 13.808C30.6136 14.468 30.5183 15.1573 30.3423 15.876C30.1663 16.58 29.9023 17.2693 29.5503 17.944C29.1983 18.6187 28.7363 19.176 28.1643 19.616C27.5923 20.056 26.903 20.3347 26.0963 20.452C25.2896 20.5693 24.3436 20.4227 23.2583 20.012C22.745 19.836 22.327 19.528 22.0043 19.088C21.6816 18.6627 21.447 18.1713 21.3003 17.614C21.1536 17.042 21.095 16.4333 21.1243 15.788C21.1683 15.128 21.293 14.4753 21.4983 13.83C21.7036 13.1847 21.9896 12.576 22.3563 12.004C22.7376 11.432 23.1923 10.948 23.7203 10.552C24.263 10.156 24.8863 9.87 25.5903 9.694C26.2943 9.518 27.0716 9.50333 27.9223 9.65ZM26.8883 17.878C27.0203 17.6873 27.167 17.4307 27.3283 17.108C27.5043 16.7853 27.651 16.4187 27.7683 16.008C27.9003 15.5827 27.9956 15.128 28.0543 14.644C28.113 14.1453 28.0983 13.632 28.0103 13.104C27.9076 12.532 27.7316 12.1653 27.4823 12.004C27.233 11.828 26.9616 11.806 26.6683 11.938C26.375 12.07 26.0816 12.3267 25.7883 12.708C25.495 13.0747 25.2383 13.522 25.0183 14.05C24.7983 14.578 24.6443 15.1573 24.5563 15.788C24.4683 16.4187 24.483 17.0493 24.6003 17.68C24.659 17.9293 24.7763 18.1273 24.9523 18.274C25.1283 18.4207 25.3336 18.5087 25.5683 18.538C25.803 18.5673 26.0376 18.5307 26.2723 18.428C26.507 18.3253 26.7123 18.142 26.8883 17.878Z" fill="#4EAD69"/>
<path d="M34.354 16.426C34.6913 16.558 34.926 16.8 35.058 17.152C35.19 17.4893 35.19 17.8633 35.058 18.274C34.9113 18.6847 34.6767 18.9853 34.354 19.176C34.046 19.3813 33.716 19.4253 33.364 19.308C33.0267 19.1907 32.792 18.9633 32.66 18.626C32.528 18.274 32.5207 17.8853 32.638 17.46C32.7993 17.0493 33.034 16.7487 33.342 16.558C33.6647 16.3527 34.002 16.3087 34.354 16.426ZM36.7073 16.888C36.7806 15.9053 36.8466 14.9887 36.9053 14.138C36.964 13.2727 37.0226 12.4073 37.0813 11.542C37.1546 10.6767 37.2426 9.782 37.3453 8.858C37.448 7.91933 37.58 6.89267 37.7413 5.778C37.844 5.49933 38.0053 5.27933 38.2253 5.118C38.4453 4.942 38.6873 4.832 38.9513 4.788C39.2153 4.72933 39.4866 4.73667 39.7653 4.81C40.044 4.88333 40.2933 5.02267 40.5133 5.228C40.6453 5.36 40.7333 5.558 40.7773 5.822C40.8213 6.086 40.836 6.29867 40.8213 6.46C40.7186 7.296 40.6306 8.088 40.5573 8.836C40.4986 9.56933 40.44 10.3247 40.3813 11.102C40.3373 11.8647 40.286 12.6713 40.2273 13.522C40.1686 14.3727 40.0953 15.326 40.0073 16.382C39.978 16.8073 40.022 17.0567 40.1393 17.13C40.2713 17.1887 40.4986 17.2107 40.8213 17.196C41.1586 17.1813 41.4226 17.174 41.6133 17.174C41.8186 17.1593 41.9873 17.152 42.1193 17.152C42.2513 17.1373 42.3613 17.13 42.4493 17.13C42.5373 17.1153 42.6473 17.1007 42.7793 17.086C42.9113 17.0713 43.0726 17.0567 43.2633 17.042C43.454 17.0273 43.718 17.0053 44.0553 16.976C44.642 16.932 45.1113 17.0273 45.4633 17.262C45.83 17.482 46.05 17.746 46.1233 18.054C46.1966 18.362 46.116 18.67 45.8813 18.978C45.6466 19.286 45.236 19.4987 44.6493 19.616C44.2826 19.7187 43.7546 19.8067 43.0653 19.88C42.376 19.968 41.6573 20.0267 40.9093 20.056C40.176 20.0853 39.494 20.0707 38.8633 20.012C38.2326 19.968 37.7853 19.8653 37.5213 19.704C37.2866 19.5133 37.1106 19.308 36.9933 19.088C36.876 18.868 36.788 18.6407 36.7293 18.406C36.6853 18.1567 36.6633 17.9073 36.6633 17.658C36.678 17.4087 36.6926 17.152 36.7073 16.888ZM53.4125 9.65C54.0139 9.738 54.5492 10.024 55.0185 10.508C55.5025 10.992 55.8252 11.5567 55.9865 12.202C56.0892 12.6127 56.1332 13.148 56.1185 13.808C56.1039 14.468 56.0085 15.1573 55.8325 15.876C55.6565 16.58 55.3925 17.2693 55.0405 17.944C54.6885 18.6187 54.2265 19.176 53.6545 19.616C53.0825 20.056 52.3932 20.3347 51.5865 20.452C50.7799 20.5693 49.8339 20.4227 48.7485 20.012C48.2352 19.836 47.8172 19.528 47.4945 19.088C47.1719 18.6627 46.9372 18.1713 46.7905 17.614C46.6439 17.042 46.5852 16.4333 46.6145 15.788C46.6585 15.128 46.7832 14.4753 46.9885 13.83C47.1939 13.1847 47.4799 12.576 47.8465 12.004C48.2279 11.432 48.6825 10.948 49.2105 10.552C49.7532 10.156 50.3765 9.87 51.0805 9.694C51.7845 9.518 52.5619 9.50333 53.4125 9.65ZM52.3785 17.878C52.5105 17.6873 52.6572 17.4307 52.8185 17.108C52.9945 16.7853 53.1412 16.4187 53.2585 16.008C53.3905 15.5827 53.4859 15.128 53.5445 14.644C53.6032 14.1453 53.5885 13.632 53.5005 13.104C53.3979 12.532 53.2219 12.1653 52.9725 12.004C52.7232 11.828 52.4519 11.806 52.1585 11.938C51.8652 12.07 51.5719 12.3267 51.2785 12.708C50.9852 13.0747 50.7285 13.522 50.5085 14.05C50.2885 14.578 50.1345 15.1573 50.0465 15.788C49.9585 16.4187 49.9732 17.0493 50.0905 17.68C50.1492 17.9293 50.2665 18.1273 50.4425 18.274C50.6185 18.4207 50.8239 18.5087 51.0585 18.538C51.2932 18.5673 51.5279 18.5307 51.7625 18.428C51.9972 18.3253 52.2025 18.142 52.3785 17.878ZM64.6951 21.156C64.6071 21.86 64.3944 22.4467 64.0571 22.916C63.7344 23.3853 63.3531 23.7373 62.9131 23.972C62.4878 24.2067 62.0331 24.324 61.5491 24.324C61.0651 24.3387 60.6104 24.2287 60.1851 23.994C59.7744 23.774 59.4224 23.4293 59.1291 22.96C58.8504 22.5053 58.6964 21.926 58.6671 21.222C58.6671 20.606 58.8284 20.0707 59.1511 19.616C59.4884 19.1613 59.8624 18.7653 60.2731 18.428C60.6984 18.0907 61.0944 17.812 61.4611 17.592C61.8424 17.3573 62.0771 17.1593 62.1651 16.998C62.2091 16.91 62.2164 16.8587 62.1871 16.844C62.1724 16.8147 62.1358 16.8073 62.0771 16.822C62.0331 16.8367 61.9818 16.866 61.9231 16.91C61.8644 16.9393 61.8131 16.9687 61.7691 16.998C61.4758 17.174 61.1238 17.3207 60.7131 17.438C60.3171 17.5553 59.9138 17.6213 59.5031 17.636C59.0924 17.6507 58.6964 17.5993 58.3151 17.482C57.9338 17.35 57.6258 17.1373 57.3911 16.844C57.0978 16.4627 56.9218 16.0593 56.8631 15.634C56.8044 15.194 56.7898 14.7687 56.8191 14.358C56.9511 12.9353 57.4718 11.762 58.3811 10.838C58.7184 10.5007 59.0704 10.2733 59.4371 10.156C59.8038 10.024 60.1778 9.97267 60.5591 10.002C60.9551 10.0167 61.3511 10.0827 61.7471 10.2C62.1431 10.3027 62.5464 10.42 62.9571 10.552C63.0011 10.464 63.0158 10.398 63.0011 10.354C63.0598 10.002 63.1331 9.72333 63.2211 9.518C63.3091 9.31267 63.4264 9.166 63.5731 9.078C63.7344 8.99 63.9324 8.96067 64.1671 8.99C64.4018 9.00467 64.6878 9.07067 65.0251 9.188C65.2598 9.26133 65.3918 9.37867 65.4211 9.54C65.4504 9.68667 65.4651 9.848 65.4651 10.024L64.6951 21.156ZM62.0771 21.794C62.2238 21.2807 62.2971 20.782 62.2971 20.298C62.3118 19.814 62.3264 19.4253 62.3411 19.132C62.1798 19.2493 61.9598 19.4547 61.6811 19.748C61.4171 20.0413 61.1898 20.3567 60.9991 20.694C60.8231 21.0313 60.7424 21.3467 60.7571 21.64C60.7718 21.9333 60.9844 22.1313 61.3951 22.234C61.5564 22.2633 61.6958 22.234 61.8131 22.146C61.9451 22.0727 62.0331 21.9553 62.0771 21.794ZM62.1211 13.412C62.2091 13.1187 62.2018 12.8767 62.0991 12.686C61.9964 12.4953 61.8351 12.3047 61.6151 12.114C61.1898 11.8647 60.8011 11.894 60.4491 12.202C60.0531 12.6273 59.7524 13.0967 59.5471 13.61C59.3418 14.1087 59.2758 14.6367 59.3491 15.194C59.3784 15.3553 59.4151 15.5313 59.4591 15.722C59.5031 15.898 59.6058 16.0227 59.7671 16.096C59.9724 16.1693 60.1484 16.1473 60.2951 16.03C60.4564 15.898 60.5958 15.7807 60.7131 15.678C61.0358 15.3113 61.3071 14.952 61.5271 14.6C61.7471 14.2333 61.9451 13.8373 62.1211 13.412Z" fill="black"/>
</svg>
